# xmcd
#
# Track frame offsets:
#	150
#	17472
#	41807
#	58654
#	82650
#	105163
#	123943
#	152999
#	172450
#	189316
#	210233
#	235332
#	261268
#
# Disc length: 3711 seconds
#
# Revision: 1
# Processed by: cddbd v1.5.1PL0 Copyright (c) Steve Scherf et al.
# Submitted via: audiograbber 1.83.01
#
DISCID=a20e7d0d
DTITLE=Samsas Traum - z.Ahn um z.Ahn - a.Ura R.emixed
DYEAR=2005
DGENRE=Alternative Rock
TTITLE0=Einer gegen alle (Samsas Traum)
TTITLE1=Mohn auf weissen Laken (Ingo Römling)
TTITLE2=Sisyphos (Thomas Rainer)
TTITLE3=a.Ura und das Schnecken.Haus (Sutinky)
TTITLE4=Der Spiegel sieht mich nicht (In Strict Confidence)
TTITLE5=Die Krähen.Kutsche (Sepia)
TTITLE6=Der Wald der vergessenen Puppen (Grayscale)
TTITLE7=K.haos-Prinz und Wind-Prinzessin (Flesh Field)
TTITLE8=Dort oben sterben Tiere (Alexander Kaschte)
TTITLE9=Ich wünsch' mir, dass das Zebra schweigt (Jochen Schoberth, Oswald Henk
TTITLE9=e und Gudrun Kothe)
TTITLE10=Endstation.Eden (Bernd Mazagg)
TTITLE11=Blut ist in der Waschmuschel (Acid Loverboy)
TTITLE12=Mohn auf weissen Laken (Whispers In The Shadow)
EXTD=Diese CD ist Bestandteil der Samsas-Traum 2xDVD/2xCD-Box "Einer gegen alle
EXTD="
EXTT0=
EXTT1=
EXTT2=
EXTT3=
EXTT4=
EXTT5=
EXTT6=
EXTT7=
EXTT8=
EXTT9=
EXTT10=
EXTT11=
EXTT12=
PLAYORDER=
